<mxfile host="Electron" agent="Mozilla/5.0 (Windows NT 10.0; Win64; x64) AppleWebKit/537.36 (KHTML, like Gecko) draw.io/24.7.17 Chrome/128.0.6613.36 Electron/32.0.1 Safari/537.36" version="24.7.17">
  <diagram name="Page-1" id="V2vnXORwywTm9Ff_jUej">
    <mxGraphModel dx="1223" dy="800" grid="1" gridSize="10" guides="1" tooltips="1" connect="1" arrows="1" fold="1" page="1" pageScale="1" pageWidth="1200" pageHeight="1600" math="0" shadow="0">
      <root>
        <mxCell id="0" />
        <mxCell id="1" parent="0" />
        <mxCell id="o5fLMYKRSajH-GLKhDvp-1" value="E ~ Stores" style="rounded=1;whiteSpace=wrap;html=1;fillColor=#008a00;fontColor=#ffffff;strokeColor=#005700;" vertex="1" parent="1">
          <mxGeometry x="500" y="60" width="240" height="80" as="geometry" />
        </mxCell>
        <mxCell id="o5fLMYKRSajH-GLKhDvp-4" value="USERS" style="rounded=1;whiteSpace=wrap;html=1;fillColor=#a20025;fontColor=#ffffff;strokeColor=#6F0000;" vertex="1" parent="1">
          <mxGeometry x="560" y="190" width="120" height="50" as="geometry" />
        </mxCell>
        <mxCell id="o5fLMYKRSajH-GLKhDvp-7" value="Admin" style="rounded=1;whiteSpace=wrap;html=1;fillColor=#60a917;fontColor=#ffffff;strokeColor=#2D7600;" vertex="1" parent="1">
          <mxGeometry x="690" y="280" width="90" height="40" as="geometry" />
        </mxCell>
        <mxCell id="o5fLMYKRSajH-GLKhDvp-10" value="Sellers" style="rounded=1;whiteSpace=wrap;html=1;fillColor=#6a00ff;fontColor=#ffffff;strokeColor=#3700CC;" vertex="1" parent="1">
          <mxGeometry x="580" y="290" width="80" height="50" as="geometry" />
        </mxCell>
        <mxCell id="o5fLMYKRSajH-GLKhDvp-13" value="Customers" style="rounded=1;whiteSpace=wrap;html=1;fillColor=#0050ef;fontColor=#ffffff;strokeColor=#001DBC;" vertex="1" parent="1">
          <mxGeometry x="460" y="280" width="100" height="50" as="geometry" />
        </mxCell>
        <mxCell id="o5fLMYKRSajH-GLKhDvp-18" value="Users Details" style="swimlane;fontStyle=0;childLayout=stackLayout;horizontal=1;startSize=30;horizontalStack=0;resizeParent=1;resizeParentMax=0;resizeLast=0;collapsible=1;marginBottom=0;whiteSpace=wrap;html=1;fillColor=#fa6800;fontColor=#000000;strokeColor=#C73500;" vertex="1" parent="1">
          <mxGeometry x="460" y="380" width="320" height="120" as="geometry" />
        </mxCell>
        <mxCell id="o5fLMYKRSajH-GLKhDvp-19" value="Age:" style="text;align=left;verticalAlign=middle;spacingLeft=4;spacingRight=4;overflow=hidden;points=[[0,0.5],[1,0.5]];portConstraint=eastwest;rotatable=0;whiteSpace=wrap;html=1;fillColor=#6d8764;fontColor=#ffffff;strokeColor=#3A5431;" vertex="1" parent="o5fLMYKRSajH-GLKhDvp-18">
          <mxGeometry y="30" width="320" height="30" as="geometry" />
        </mxCell>
        <mxCell id="o5fLMYKRSajH-GLKhDvp-20" value="Email:" style="text;align=left;verticalAlign=middle;spacingLeft=4;spacingRight=4;overflow=hidden;points=[[0,0.5],[1,0.5]];portConstraint=eastwest;rotatable=0;whiteSpace=wrap;html=1;fillColor=#6d8764;fontColor=#ffffff;strokeColor=#3A5431;" vertex="1" parent="o5fLMYKRSajH-GLKhDvp-18">
          <mxGeometry y="60" width="320" height="30" as="geometry" />
        </mxCell>
        <mxCell id="o5fLMYKRSajH-GLKhDvp-21" value="Home Address:" style="text;align=left;verticalAlign=middle;spacingLeft=4;spacingRight=4;overflow=hidden;points=[[0,0.5],[1,0.5]];portConstraint=eastwest;rotatable=0;whiteSpace=wrap;html=1;fillColor=#6d8764;fontColor=#ffffff;strokeColor=#3A5431;" vertex="1" parent="o5fLMYKRSajH-GLKhDvp-18">
          <mxGeometry y="90" width="320" height="30" as="geometry" />
        </mxCell>
        <mxCell id="o5fLMYKRSajH-GLKhDvp-30" value="User Other Details" style="swimlane;fontStyle=0;childLayout=stackLayout;horizontal=1;startSize=26;horizontalStack=0;resizeParent=1;resizeParentMax=0;resizeLast=0;collapsible=1;marginBottom=0;align=center;fontSize=14;fillColor=#fa6800;fontColor=#000000;strokeColor=#C73500;" vertex="1" parent="1">
          <mxGeometry x="460" y="500" width="320" height="116" as="geometry" />
        </mxCell>
        <mxCell id="o5fLMYKRSajH-GLKhDvp-31" value="Name:" style="text;strokeColor=#3A5431;fillColor=#6d8764;spacingLeft=4;spacingRight=4;overflow=hidden;rotatable=0;points=[[0,0.5],[1,0.5]];portConstraint=eastwest;fontSize=12;whiteSpace=wrap;html=1;fontColor=#ffffff;" vertex="1" parent="o5fLMYKRSajH-GLKhDvp-30">
          <mxGeometry y="26" width="320" height="30" as="geometry" />
        </mxCell>
        <mxCell id="o5fLMYKRSajH-GLKhDvp-32" value="Password:" style="text;strokeColor=#3A5431;fillColor=#6d8764;spacingLeft=4;spacingRight=4;overflow=hidden;rotatable=0;points=[[0,0.5],[1,0.5]];portConstraint=eastwest;fontSize=12;whiteSpace=wrap;html=1;fontColor=#ffffff;" vertex="1" parent="o5fLMYKRSajH-GLKhDvp-30">
          <mxGeometry y="56" width="320" height="30" as="geometry" />
        </mxCell>
        <mxCell id="o5fLMYKRSajH-GLKhDvp-33" value="Phone:" style="text;strokeColor=#3A5431;fillColor=#6d8764;spacingLeft=4;spacingRight=4;overflow=hidden;rotatable=0;points=[[0,0.5],[1,0.5]];portConstraint=eastwest;fontSize=12;whiteSpace=wrap;html=1;fontColor=#ffffff;" vertex="1" parent="o5fLMYKRSajH-GLKhDvp-30">
          <mxGeometry y="86" width="320" height="30" as="geometry" />
        </mxCell>
        <mxCell id="o5fLMYKRSajH-GLKhDvp-35" value="SHOPPING CART&lt;div&gt;ITEMS&lt;/div&gt;" style="rounded=1;whiteSpace=wrap;html=1;fillColor=#f0a30a;fontColor=#000000;strokeColor=#BD7000;" vertex="1" parent="1">
          <mxGeometry x="550" y="660" width="130" height="60" as="geometry" />
        </mxCell>
        <mxCell id="o5fLMYKRSajH-GLKhDvp-37" value="ELECTRONICS" style="rounded=1;whiteSpace=wrap;html=1;fillColor=#a20025;fontColor=#ffffff;strokeColor=#6F0000;" vertex="1" parent="1">
          <mxGeometry x="320" y="670" width="120" height="60" as="geometry" />
        </mxCell>
        <mxCell id="o5fLMYKRSajH-GLKhDvp-39" value="GROCERIES" style="rounded=1;whiteSpace=wrap;html=1;fillColor=#a20025;fontColor=#ffffff;strokeColor=#6F0000;" vertex="1" parent="1">
          <mxGeometry x="450" y="760" width="120" height="60" as="geometry" />
        </mxCell>
        <mxCell id="o5fLMYKRSajH-GLKhDvp-42" value="UTENSILS" style="rounded=1;whiteSpace=wrap;html=1;fillColor=#a20025;fontColor=#ffffff;strokeColor=#6F0000;" vertex="1" parent="1">
          <mxGeometry x="590" y="760" width="120" height="60" as="geometry" />
        </mxCell>
        <mxCell id="o5fLMYKRSajH-GLKhDvp-44" value="CLOTHINGS" style="rounded=1;whiteSpace=wrap;html=1;fillColor=#a20025;fontColor=#ffffff;strokeColor=#6F0000;" vertex="1" parent="1">
          <mxGeometry x="760" y="660" width="140" height="70" as="geometry" />
        </mxCell>
        <mxCell id="o5fLMYKRSajH-GLKhDvp-46" value="Product Name" style="swimlane;fontStyle=0;childLayout=stackLayout;horizontal=1;startSize=30;horizontalStack=0;resizeParent=1;resizeParentMax=0;resizeLast=0;collapsible=1;marginBottom=0;whiteSpace=wrap;html=1;fillColor=#0050ef;fontColor=#ffffff;strokeColor=#001DBC;" vertex="1" parent="1">
          <mxGeometry x="240" y="820" width="140" height="120" as="geometry" />
        </mxCell>
        <mxCell id="o5fLMYKRSajH-GLKhDvp-47" value="Description:" style="text;strokeColor=#3A5431;fillColor=#6d8764;align=left;verticalAlign=middle;spacingLeft=4;spacingRight=4;overflow=hidden;points=[[0,0.5],[1,0.5]];portConstraint=eastwest;rotatable=0;whiteSpace=wrap;html=1;fontColor=#ffffff;" vertex="1" parent="o5fLMYKRSajH-GLKhDvp-46">
          <mxGeometry y="30" width="140" height="30" as="geometry" />
        </mxCell>
        <mxCell id="o5fLMYKRSajH-GLKhDvp-48" value="Product ID:" style="text;strokeColor=#3A5431;fillColor=#6d8764;align=left;verticalAlign=middle;spacingLeft=4;spacingRight=4;overflow=hidden;points=[[0,0.5],[1,0.5]];portConstraint=eastwest;rotatable=0;whiteSpace=wrap;html=1;fontColor=#ffffff;" vertex="1" parent="o5fLMYKRSajH-GLKhDvp-46">
          <mxGeometry y="60" width="140" height="30" as="geometry" />
        </mxCell>
        <mxCell id="o5fLMYKRSajH-GLKhDvp-49" value="Price:" style="text;strokeColor=#3A5431;fillColor=#6d8764;align=left;verticalAlign=middle;spacingLeft=4;spacingRight=4;overflow=hidden;points=[[0,0.5],[1,0.5]];portConstraint=eastwest;rotatable=0;whiteSpace=wrap;html=1;fontColor=#ffffff;" vertex="1" parent="o5fLMYKRSajH-GLKhDvp-46">
          <mxGeometry y="90" width="140" height="30" as="geometry" />
        </mxCell>
        <mxCell id="o5fLMYKRSajH-GLKhDvp-51" value="Product Name" style="swimlane;fontStyle=0;childLayout=stackLayout;horizontal=1;startSize=30;horizontalStack=0;resizeParent=1;resizeParentMax=0;resizeLast=0;collapsible=1;marginBottom=0;whiteSpace=wrap;html=1;fillColor=#a0522d;fontColor=#ffffff;strokeColor=#6D1F00;" vertex="1" parent="1">
          <mxGeometry x="440" y="900" width="140" height="120" as="geometry" />
        </mxCell>
        <mxCell id="o5fLMYKRSajH-GLKhDvp-52" value="Description:" style="text;strokeColor=#314354;fillColor=#647687;align=left;verticalAlign=middle;spacingLeft=4;spacingRight=4;overflow=hidden;points=[[0,0.5],[1,0.5]];portConstraint=eastwest;rotatable=0;whiteSpace=wrap;html=1;fontColor=#ffffff;" vertex="1" parent="o5fLMYKRSajH-GLKhDvp-51">
          <mxGeometry y="30" width="140" height="30" as="geometry" />
        </mxCell>
        <mxCell id="o5fLMYKRSajH-GLKhDvp-53" value="Product ID:" style="text;strokeColor=#314354;fillColor=#647687;align=left;verticalAlign=middle;spacingLeft=4;spacingRight=4;overflow=hidden;points=[[0,0.5],[1,0.5]];portConstraint=eastwest;rotatable=0;whiteSpace=wrap;html=1;fontColor=#ffffff;" vertex="1" parent="o5fLMYKRSajH-GLKhDvp-51">
          <mxGeometry y="60" width="140" height="30" as="geometry" />
        </mxCell>
        <mxCell id="o5fLMYKRSajH-GLKhDvp-54" value="Price:" style="text;strokeColor=#314354;fillColor=#647687;align=left;verticalAlign=middle;spacingLeft=4;spacingRight=4;overflow=hidden;points=[[0,0.5],[1,0.5]];portConstraint=eastwest;rotatable=0;whiteSpace=wrap;html=1;fontColor=#ffffff;" vertex="1" parent="o5fLMYKRSajH-GLKhDvp-51">
          <mxGeometry y="90" width="140" height="30" as="geometry" />
        </mxCell>
        <mxCell id="o5fLMYKRSajH-GLKhDvp-56" value="Product Name" style="swimlane;fontStyle=0;childLayout=stackLayout;horizontal=1;startSize=30;horizontalStack=0;resizeParent=1;resizeParentMax=0;resizeLast=0;collapsible=1;marginBottom=0;whiteSpace=wrap;html=1;fillColor=#a20025;fontColor=#ffffff;strokeColor=#6F0000;" vertex="1" parent="1">
          <mxGeometry x="620" y="900" width="140" height="120" as="geometry" />
        </mxCell>
        <mxCell id="o5fLMYKRSajH-GLKhDvp-57" value="Description:" style="text;strokeColor=#314354;fillColor=#647687;align=left;verticalAlign=middle;spacingLeft=4;spacingRight=4;overflow=hidden;points=[[0,0.5],[1,0.5]];portConstraint=eastwest;rotatable=0;whiteSpace=wrap;html=1;fontColor=#ffffff;" vertex="1" parent="o5fLMYKRSajH-GLKhDvp-56">
          <mxGeometry y="30" width="140" height="30" as="geometry" />
        </mxCell>
        <mxCell id="o5fLMYKRSajH-GLKhDvp-58" value="Product ID:" style="text;strokeColor=#314354;fillColor=#647687;align=left;verticalAlign=middle;spacingLeft=4;spacingRight=4;overflow=hidden;points=[[0,0.5],[1,0.5]];portConstraint=eastwest;rotatable=0;whiteSpace=wrap;html=1;fontColor=#ffffff;" vertex="1" parent="o5fLMYKRSajH-GLKhDvp-56">
          <mxGeometry y="60" width="140" height="30" as="geometry" />
        </mxCell>
        <mxCell id="o5fLMYKRSajH-GLKhDvp-59" value="Price:" style="text;strokeColor=#314354;fillColor=#647687;align=left;verticalAlign=middle;spacingLeft=4;spacingRight=4;overflow=hidden;points=[[0,0.5],[1,0.5]];portConstraint=eastwest;rotatable=0;whiteSpace=wrap;html=1;fontColor=#ffffff;" vertex="1" parent="o5fLMYKRSajH-GLKhDvp-56">
          <mxGeometry y="90" width="140" height="30" as="geometry" />
        </mxCell>
        <mxCell id="o5fLMYKRSajH-GLKhDvp-61" value="Product Name" style="swimlane;fontStyle=0;childLayout=stackLayout;horizontal=1;startSize=30;horizontalStack=0;resizeParent=1;resizeParentMax=0;resizeLast=0;collapsible=1;marginBottom=0;whiteSpace=wrap;html=1;fillColor=#0050ef;fontColor=#ffffff;strokeColor=#001DBC;" vertex="1" parent="1">
          <mxGeometry x="850" y="800" width="140" height="120" as="geometry" />
        </mxCell>
        <mxCell id="o5fLMYKRSajH-GLKhDvp-62" value="Description:" style="text;strokeColor=#3A5431;fillColor=#6d8764;align=left;verticalAlign=middle;spacingLeft=4;spacingRight=4;overflow=hidden;points=[[0,0.5],[1,0.5]];portConstraint=eastwest;rotatable=0;whiteSpace=wrap;html=1;fontColor=#ffffff;" vertex="1" parent="o5fLMYKRSajH-GLKhDvp-61">
          <mxGeometry y="30" width="140" height="30" as="geometry" />
        </mxCell>
        <mxCell id="o5fLMYKRSajH-GLKhDvp-63" value="Product ID:" style="text;strokeColor=#3A5431;fillColor=#6d8764;align=left;verticalAlign=middle;spacingLeft=4;spacingRight=4;overflow=hidden;points=[[0,0.5],[1,0.5]];portConstraint=eastwest;rotatable=0;whiteSpace=wrap;html=1;fontColor=#ffffff;" vertex="1" parent="o5fLMYKRSajH-GLKhDvp-61">
          <mxGeometry y="60" width="140" height="30" as="geometry" />
        </mxCell>
        <mxCell id="o5fLMYKRSajH-GLKhDvp-64" value="Price:" style="text;strokeColor=#3A5431;fillColor=#6d8764;align=left;verticalAlign=middle;spacingLeft=4;spacingRight=4;overflow=hidden;points=[[0,0.5],[1,0.5]];portConstraint=eastwest;rotatable=0;whiteSpace=wrap;html=1;fontColor=#ffffff;" vertex="1" parent="o5fLMYKRSajH-GLKhDvp-61">
          <mxGeometry y="90" width="140" height="30" as="geometry" />
        </mxCell>
        <mxCell id="o5fLMYKRSajH-GLKhDvp-72" value="" style="endArrow=none;html=1;rounded=0;entryX=0.509;entryY=1.035;entryDx=0;entryDy=0;entryPerimeter=0;" edge="1" parent="1" target="o5fLMYKRSajH-GLKhDvp-54">
          <mxGeometry width="50" height="50" relative="1" as="geometry">
            <mxPoint x="511" y="1050" as="sourcePoint" />
            <mxPoint x="590" y="1010" as="targetPoint" />
          </mxGeometry>
        </mxCell>
        <mxCell id="o5fLMYKRSajH-GLKhDvp-73" value="" style="endArrow=none;html=1;rounded=0;entryX=0.514;entryY=1.06;entryDx=0;entryDy=0;entryPerimeter=0;" edge="1" parent="1" target="o5fLMYKRSajH-GLKhDvp-59">
          <mxGeometry width="50" height="50" relative="1" as="geometry">
            <mxPoint x="692" y="1048" as="sourcePoint" />
            <mxPoint x="590" y="1010" as="targetPoint" />
          </mxGeometry>
        </mxCell>
        <mxCell id="o5fLMYKRSajH-GLKhDvp-76" value="" style="endArrow=classic;html=1;rounded=0;entryX=0;entryY=0.5;entryDx=0;entryDy=0;" edge="1" parent="1" target="o5fLMYKRSajH-GLKhDvp-4">
          <mxGeometry width="50" height="50" relative="1" as="geometry">
            <mxPoint x="320" y="215" as="sourcePoint" />
            <mxPoint x="590" y="100" as="targetPoint" />
          </mxGeometry>
        </mxCell>
        <mxCell id="o5fLMYKRSajH-GLKhDvp-77" value="" style="endArrow=none;html=1;rounded=0;" edge="1" parent="1">
          <mxGeometry width="50" height="50" relative="1" as="geometry">
            <mxPoint x="160" y="1040" as="sourcePoint" />
            <mxPoint x="320" y="210" as="targetPoint" />
          </mxGeometry>
        </mxCell>
        <mxCell id="o5fLMYKRSajH-GLKhDvp-78" value="" style="endArrow=classic;html=1;rounded=0;entryX=0.001;entryY=0.17;entryDx=0;entryDy=0;entryPerimeter=0;" edge="1" parent="1">
          <mxGeometry width="50" height="50" relative="1" as="geometry">
            <mxPoint x="160" y="1040" as="sourcePoint" />
            <mxPoint x="240.75" y="1060.2" as="targetPoint" />
          </mxGeometry>
        </mxCell>
        <mxCell id="o5fLMYKRSajH-GLKhDvp-81" value="" style="endArrow=classic;html=1;rounded=0;entryX=1;entryY=0.145;entryDx=0;entryDy=0;entryPerimeter=0;" edge="1" parent="1">
          <mxGeometry width="50" height="50" relative="1" as="geometry">
            <mxPoint x="1120" y="1000" as="sourcePoint" />
            <mxPoint x="990" y="1058.7" as="targetPoint" />
          </mxGeometry>
        </mxCell>
        <mxCell id="o5fLMYKRSajH-GLKhDvp-82" value="" style="endArrow=none;html=1;rounded=0;" edge="1" parent="1">
          <mxGeometry width="50" height="50" relative="1" as="geometry">
            <mxPoint x="1120" y="1000" as="sourcePoint" />
            <mxPoint x="880" y="238.50607479319854" as="targetPoint" />
          </mxGeometry>
        </mxCell>
        <mxCell id="o5fLMYKRSajH-GLKhDvp-83" value="" style="endArrow=classic;html=1;rounded=0;entryX=1;entryY=0.5;entryDx=0;entryDy=0;" edge="1" parent="1" target="o5fLMYKRSajH-GLKhDvp-4">
          <mxGeometry width="50" height="50" relative="1" as="geometry">
            <mxPoint x="880" y="240" as="sourcePoint" />
            <mxPoint x="780" y="250" as="targetPoint" />
          </mxGeometry>
        </mxCell>
        <mxCell id="o5fLMYKRSajH-GLKhDvp-84" value="Billing Information" style="swimlane;fontStyle=0;childLayout=stackLayout;horizontal=1;startSize=30;horizontalStack=0;resizeParent=1;resizeParentMax=0;resizeLast=0;collapsible=1;marginBottom=0;whiteSpace=wrap;html=1;fillColor=#008a00;fontColor=#ffffff;strokeColor=#005700;" vertex="1" parent="1">
          <mxGeometry x="240" y="1050" width="750" height="90" as="geometry" />
        </mxCell>
        <mxCell id="o5fLMYKRSajH-GLKhDvp-85" value="Name:" style="text;strokeColor=#314354;fillColor=#647687;align=left;verticalAlign=middle;spacingLeft=4;spacingRight=4;overflow=hidden;points=[[0,0.5],[1,0.5]];portConstraint=eastwest;rotatable=0;whiteSpace=wrap;html=1;fontColor=#ffffff;" vertex="1" parent="o5fLMYKRSajH-GLKhDvp-84">
          <mxGeometry y="30" width="750" height="30" as="geometry" />
        </mxCell>
        <mxCell id="o5fLMYKRSajH-GLKhDvp-86" value="Phone:" style="text;strokeColor=#314354;fillColor=#647687;align=left;verticalAlign=middle;spacingLeft=4;spacingRight=4;overflow=hidden;points=[[0,0.5],[1,0.5]];portConstraint=eastwest;rotatable=0;whiteSpace=wrap;html=1;fontColor=#ffffff;" vertex="1" parent="o5fLMYKRSajH-GLKhDvp-84">
          <mxGeometry y="60" width="750" height="30" as="geometry" />
        </mxCell>
        <mxCell id="o5fLMYKRSajH-GLKhDvp-93" value="Card Details" style="swimlane;fontStyle=0;childLayout=stackLayout;horizontal=1;startSize=30;horizontalStack=0;resizeParent=1;resizeParentMax=0;resizeLast=0;collapsible=1;marginBottom=0;whiteSpace=wrap;html=1;fillColor=#fa6800;fontColor=#000000;strokeColor=#C73500;" vertex="1" parent="1">
          <mxGeometry x="240" y="1140" width="750" height="120" as="geometry" />
        </mxCell>
        <mxCell id="o5fLMYKRSajH-GLKhDvp-94" value="Holder Name:" style="text;strokeColor=#006EAF;fillColor=#1ba1e2;align=left;verticalAlign=middle;spacingLeft=4;spacingRight=4;overflow=hidden;points=[[0,0.5],[1,0.5]];portConstraint=eastwest;rotatable=0;whiteSpace=wrap;html=1;fontColor=#ffffff;" vertex="1" parent="o5fLMYKRSajH-GLKhDvp-93">
          <mxGeometry y="30" width="750" height="30" as="geometry" />
        </mxCell>
        <mxCell id="o5fLMYKRSajH-GLKhDvp-95" value="card CVV:" style="text;strokeColor=#006EAF;fillColor=#1ba1e2;align=left;verticalAlign=middle;spacingLeft=4;spacingRight=4;overflow=hidden;points=[[0,0.5],[1,0.5]];portConstraint=eastwest;rotatable=0;whiteSpace=wrap;html=1;fontColor=#ffffff;" vertex="1" parent="o5fLMYKRSajH-GLKhDvp-93">
          <mxGeometry y="60" width="750" height="30" as="geometry" />
        </mxCell>
        <mxCell id="o5fLMYKRSajH-GLKhDvp-96" value="Expiry Year/Month:" style="text;strokeColor=#006EAF;fillColor=#1ba1e2;align=left;verticalAlign=middle;spacingLeft=4;spacingRight=4;overflow=hidden;points=[[0,0.5],[1,0.5]];portConstraint=eastwest;rotatable=0;whiteSpace=wrap;html=1;fontColor=#ffffff;" vertex="1" parent="o5fLMYKRSajH-GLKhDvp-93">
          <mxGeometry y="90" width="750" height="30" as="geometry" />
        </mxCell>
        <mxCell id="o5fLMYKRSajH-GLKhDvp-97" value="More Details" style="swimlane;fontStyle=0;childLayout=stackLayout;horizontal=1;startSize=30;horizontalStack=0;resizeParent=1;resizeParentMax=0;resizeLast=0;collapsible=1;marginBottom=0;whiteSpace=wrap;html=1;fillColor=#a20025;fontColor=#ffffff;strokeColor=#6F0000;" vertex="1" parent="1">
          <mxGeometry x="240" y="1260" width="750" height="120" as="geometry" />
        </mxCell>
        <mxCell id="o5fLMYKRSajH-GLKhDvp-98" value="Card Number:" style="text;strokeColor=#2D7600;fillColor=#60a917;align=left;verticalAlign=middle;spacingLeft=4;spacingRight=4;overflow=hidden;points=[[0,0.5],[1,0.5]];portConstraint=eastwest;rotatable=0;whiteSpace=wrap;html=1;fontColor=#ffffff;" vertex="1" parent="o5fLMYKRSajH-GLKhDvp-97">
          <mxGeometry y="30" width="750" height="30" as="geometry" />
        </mxCell>
        <mxCell id="o5fLMYKRSajH-GLKhDvp-99" value="Card Type:" style="text;strokeColor=#2D7600;fillColor=#60a917;align=left;verticalAlign=middle;spacingLeft=4;spacingRight=4;overflow=hidden;points=[[0,0.5],[1,0.5]];portConstraint=eastwest;rotatable=0;whiteSpace=wrap;html=1;fontColor=#ffffff;" vertex="1" parent="o5fLMYKRSajH-GLKhDvp-97">
          <mxGeometry y="60" width="750" height="30" as="geometry" />
        </mxCell>
        <mxCell id="o5fLMYKRSajH-GLKhDvp-100" value="Supported Cards:(VisaCard, MasterCard, Verve, American Express)" style="text;strokeColor=#2D7600;fillColor=#60a917;align=left;verticalAlign=middle;spacingLeft=4;spacingRight=4;overflow=hidden;points=[[0,0.5],[1,0.5]];portConstraint=eastwest;rotatable=0;whiteSpace=wrap;html=1;fontColor=#ffffff;" vertex="1" parent="o5fLMYKRSajH-GLKhDvp-97">
          <mxGeometry y="90" width="750" height="30" as="geometry" />
        </mxCell>
        <mxCell id="o5fLMYKRSajH-GLKhDvp-105" value="User Address" style="swimlane;fontStyle=0;childLayout=stackLayout;horizontal=1;startSize=30;horizontalStack=0;resizeParent=1;resizeParentMax=0;resizeLast=0;collapsible=1;marginBottom=0;whiteSpace=wrap;html=1;fillColor=#0050ef;fontColor=#ffffff;strokeColor=#001DBC;" vertex="1" parent="1">
          <mxGeometry x="240" y="1380" width="750" height="120" as="geometry" />
        </mxCell>
        <mxCell id="o5fLMYKRSajH-GLKhDvp-106" value="House Number:" style="text;strokeColor=#3A5431;fillColor=#6d8764;align=left;verticalAlign=middle;spacingLeft=4;spacingRight=4;overflow=hidden;points=[[0,0.5],[1,0.5]];portConstraint=eastwest;rotatable=0;whiteSpace=wrap;html=1;fontColor=#ffffff;" vertex="1" parent="o5fLMYKRSajH-GLKhDvp-105">
          <mxGeometry y="30" width="750" height="30" as="geometry" />
        </mxCell>
        <mxCell id="o5fLMYKRSajH-GLKhDvp-107" value="Street Name:" style="text;strokeColor=#3A5431;fillColor=#6d8764;align=left;verticalAlign=middle;spacingLeft=4;spacingRight=4;overflow=hidden;points=[[0,0.5],[1,0.5]];portConstraint=eastwest;rotatable=0;whiteSpace=wrap;html=1;fontColor=#ffffff;" vertex="1" parent="o5fLMYKRSajH-GLKhDvp-105">
          <mxGeometry y="60" width="750" height="30" as="geometry" />
        </mxCell>
        <mxCell id="o5fLMYKRSajH-GLKhDvp-108" value="City Name:" style="text;strokeColor=#3A5431;fillColor=#6d8764;align=left;verticalAlign=middle;spacingLeft=4;spacingRight=4;overflow=hidden;points=[[0,0.5],[1,0.5]];portConstraint=eastwest;rotatable=0;whiteSpace=wrap;html=1;fontColor=#ffffff;" vertex="1" parent="o5fLMYKRSajH-GLKhDvp-105">
          <mxGeometry y="90" width="750" height="30" as="geometry" />
        </mxCell>
        <mxCell id="o5fLMYKRSajH-GLKhDvp-109" value="More Details" style="swimlane;fontStyle=0;childLayout=stackLayout;horizontal=1;startSize=30;horizontalStack=0;resizeParent=1;resizeParentMax=0;resizeLast=0;collapsible=1;marginBottom=0;whiteSpace=wrap;html=1;fillColor=#6a00ff;fontColor=#ffffff;strokeColor=#3700CC;" vertex="1" parent="1">
          <mxGeometry x="240" y="1500" width="750" height="90" as="geometry" />
        </mxCell>
        <mxCell id="o5fLMYKRSajH-GLKhDvp-110" value="State:" style="text;strokeColor=#432D57;fillColor=#76608a;align=left;verticalAlign=middle;spacingLeft=4;spacingRight=4;overflow=hidden;points=[[0,0.5],[1,0.5]];portConstraint=eastwest;rotatable=0;whiteSpace=wrap;html=1;fontColor=#ffffff;" vertex="1" parent="o5fLMYKRSajH-GLKhDvp-109">
          <mxGeometry y="30" width="750" height="30" as="geometry" />
        </mxCell>
        <mxCell id="o5fLMYKRSajH-GLKhDvp-111" value="Country Name:" style="text;strokeColor=#432D57;fillColor=#76608a;align=left;verticalAlign=middle;spacingLeft=4;spacingRight=4;overflow=hidden;points=[[0,0.5],[1,0.5]];portConstraint=eastwest;rotatable=0;whiteSpace=wrap;html=1;fontColor=#ffffff;" vertex="1" parent="o5fLMYKRSajH-GLKhDvp-109">
          <mxGeometry y="60" width="750" height="30" as="geometry" />
        </mxCell>
        <mxCell id="o5fLMYKRSajH-GLKhDvp-113" value="" style="endArrow=classic;html=1;rounded=0;entryX=0.5;entryY=0;entryDx=0;entryDy=0;exitX=0.5;exitY=1;exitDx=0;exitDy=0;" edge="1" parent="1" source="o5fLMYKRSajH-GLKhDvp-39" target="o5fLMYKRSajH-GLKhDvp-51">
          <mxGeometry width="50" height="50" relative="1" as="geometry">
            <mxPoint x="610" y="970" as="sourcePoint" />
            <mxPoint x="660" y="920" as="targetPoint" />
          </mxGeometry>
        </mxCell>
        <mxCell id="o5fLMYKRSajH-GLKhDvp-114" value="" style="endArrow=classic;html=1;rounded=0;entryX=0.5;entryY=0;entryDx=0;entryDy=0;exitX=0.5;exitY=1;exitDx=0;exitDy=0;" edge="1" parent="1" source="o5fLMYKRSajH-GLKhDvp-42" target="o5fLMYKRSajH-GLKhDvp-56">
          <mxGeometry width="50" height="50" relative="1" as="geometry">
            <mxPoint x="610" y="970" as="sourcePoint" />
            <mxPoint x="660" y="920" as="targetPoint" />
          </mxGeometry>
        </mxCell>
        <mxCell id="o5fLMYKRSajH-GLKhDvp-115" value="" style="endArrow=classic;html=1;rounded=0;entryX=0.5;entryY=0;entryDx=0;entryDy=0;exitX=0.5;exitY=1;exitDx=0;exitDy=0;" edge="1" parent="1" source="o5fLMYKRSajH-GLKhDvp-44" target="o5fLMYKRSajH-GLKhDvp-61">
          <mxGeometry width="50" height="50" relative="1" as="geometry">
            <mxPoint x="610" y="970" as="sourcePoint" />
            <mxPoint x="660" y="920" as="targetPoint" />
          </mxGeometry>
        </mxCell>
        <mxCell id="o5fLMYKRSajH-GLKhDvp-117" value="" style="endArrow=classic;html=1;rounded=0;entryX=0.5;entryY=0;entryDx=0;entryDy=0;exitX=0.5;exitY=1;exitDx=0;exitDy=0;" edge="1" parent="1" source="o5fLMYKRSajH-GLKhDvp-37" target="o5fLMYKRSajH-GLKhDvp-46">
          <mxGeometry width="50" height="50" relative="1" as="geometry">
            <mxPoint x="610" y="970" as="sourcePoint" />
            <mxPoint x="420" y="820" as="targetPoint" />
          </mxGeometry>
        </mxCell>
        <mxCell id="o5fLMYKRSajH-GLKhDvp-119" value="" style="endArrow=classic;html=1;rounded=0;entryX=1;entryY=0.5;entryDx=0;entryDy=0;exitX=0;exitY=0.5;exitDx=0;exitDy=0;" edge="1" parent="1" source="o5fLMYKRSajH-GLKhDvp-35" target="o5fLMYKRSajH-GLKhDvp-37">
          <mxGeometry width="50" height="50" relative="1" as="geometry">
            <mxPoint x="610" y="970" as="sourcePoint" />
            <mxPoint x="660" y="920" as="targetPoint" />
          </mxGeometry>
        </mxCell>
        <mxCell id="o5fLMYKRSajH-GLKhDvp-120" value="" style="endArrow=classic;html=1;rounded=0;entryX=0;entryY=0.5;entryDx=0;entryDy=0;exitX=1;exitY=0.5;exitDx=0;exitDy=0;" edge="1" parent="1" source="o5fLMYKRSajH-GLKhDvp-35" target="o5fLMYKRSajH-GLKhDvp-44">
          <mxGeometry width="50" height="50" relative="1" as="geometry">
            <mxPoint x="610" y="970" as="sourcePoint" />
            <mxPoint x="660" y="920" as="targetPoint" />
          </mxGeometry>
        </mxCell>
        <mxCell id="o5fLMYKRSajH-GLKhDvp-121" value="" style="endArrow=classic;html=1;rounded=0;entryX=0.5;entryY=0;entryDx=0;entryDy=0;exitX=0.5;exitY=1;exitDx=0;exitDy=0;" edge="1" parent="1" source="o5fLMYKRSajH-GLKhDvp-35" target="o5fLMYKRSajH-GLKhDvp-42">
          <mxGeometry width="50" height="50" relative="1" as="geometry">
            <mxPoint x="610" y="970" as="sourcePoint" />
            <mxPoint x="660" y="920" as="targetPoint" />
          </mxGeometry>
        </mxCell>
        <mxCell id="o5fLMYKRSajH-GLKhDvp-122" value="" style="endArrow=classic;html=1;rounded=0;entryX=0.5;entryY=0;entryDx=0;entryDy=0;exitX=0.5;exitY=1;exitDx=0;exitDy=0;" edge="1" parent="1" source="o5fLMYKRSajH-GLKhDvp-35" target="o5fLMYKRSajH-GLKhDvp-39">
          <mxGeometry width="50" height="50" relative="1" as="geometry">
            <mxPoint x="610" y="970" as="sourcePoint" />
            <mxPoint x="660" y="920" as="targetPoint" />
          </mxGeometry>
        </mxCell>
        <mxCell id="o5fLMYKRSajH-GLKhDvp-123" value="" style="endArrow=classic;html=1;rounded=0;entryX=0;entryY=0;entryDx=0;entryDy=0;exitX=0;exitY=1;exitDx=0;exitDy=0;" edge="1" parent="1" source="o5fLMYKRSajH-GLKhDvp-46" target="o5fLMYKRSajH-GLKhDvp-84">
          <mxGeometry width="50" height="50" relative="1" as="geometry">
            <mxPoint x="610" y="970" as="sourcePoint" />
            <mxPoint x="660" y="920" as="targetPoint" />
          </mxGeometry>
        </mxCell>
        <mxCell id="o5fLMYKRSajH-GLKhDvp-124" value="" style="endArrow=classic;html=1;rounded=0;entryX=1;entryY=0;entryDx=0;entryDy=0;exitX=1;exitY=1;exitDx=0;exitDy=0;" edge="1" parent="1" source="o5fLMYKRSajH-GLKhDvp-61" target="o5fLMYKRSajH-GLKhDvp-84">
          <mxGeometry width="50" height="50" relative="1" as="geometry">
            <mxPoint x="610" y="970" as="sourcePoint" />
            <mxPoint x="660" y="920" as="targetPoint" />
          </mxGeometry>
        </mxCell>
        <mxCell id="o5fLMYKRSajH-GLKhDvp-125" value="" style="endArrow=classic;html=1;rounded=0;entryX=0.5;entryY=0;entryDx=0;entryDy=0;" edge="1" parent="1" target="o5fLMYKRSajH-GLKhDvp-35">
          <mxGeometry width="50" height="50" relative="1" as="geometry">
            <mxPoint x="615" y="620" as="sourcePoint" />
            <mxPoint x="660" y="470" as="targetPoint" />
          </mxGeometry>
        </mxCell>
        <mxCell id="o5fLMYKRSajH-GLKhDvp-126" value="" style="endArrow=classic;html=1;rounded=0;entryX=0.5;entryY=0;entryDx=0;entryDy=0;exitX=0.5;exitY=1;exitDx=0;exitDy=0;" edge="1" parent="1" source="o5fLMYKRSajH-GLKhDvp-10" target="o5fLMYKRSajH-GLKhDvp-18">
          <mxGeometry width="50" height="50" relative="1" as="geometry">
            <mxPoint x="610" y="520" as="sourcePoint" />
            <mxPoint x="660" y="470" as="targetPoint" />
          </mxGeometry>
        </mxCell>
        <mxCell id="o5fLMYKRSajH-GLKhDvp-127" value="" style="endArrow=classic;html=1;rounded=0;entryX=1;entryY=0;entryDx=0;entryDy=0;exitX=1;exitY=1;exitDx=0;exitDy=0;" edge="1" parent="1" source="o5fLMYKRSajH-GLKhDvp-7" target="o5fLMYKRSajH-GLKhDvp-18">
          <mxGeometry width="50" height="50" relative="1" as="geometry">
            <mxPoint x="610" y="520" as="sourcePoint" />
            <mxPoint x="660" y="470" as="targetPoint" />
          </mxGeometry>
        </mxCell>
        <mxCell id="o5fLMYKRSajH-GLKhDvp-128" value="" style="endArrow=classic;html=1;rounded=0;entryX=0;entryY=0;entryDx=0;entryDy=0;exitX=0;exitY=0.75;exitDx=0;exitDy=0;" edge="1" parent="1" source="o5fLMYKRSajH-GLKhDvp-13" target="o5fLMYKRSajH-GLKhDvp-18">
          <mxGeometry width="50" height="50" relative="1" as="geometry">
            <mxPoint x="610" y="520" as="sourcePoint" />
            <mxPoint x="660" y="470" as="targetPoint" />
          </mxGeometry>
        </mxCell>
        <mxCell id="o5fLMYKRSajH-GLKhDvp-132" value="" style="endArrow=classic;html=1;rounded=0;entryX=0.5;entryY=0;entryDx=0;entryDy=0;exitX=0.5;exitY=1;exitDx=0;exitDy=0;" edge="1" parent="1" source="o5fLMYKRSajH-GLKhDvp-1" target="o5fLMYKRSajH-GLKhDvp-4">
          <mxGeometry width="50" height="50" relative="1" as="geometry">
            <mxPoint x="610" y="260" as="sourcePoint" />
            <mxPoint x="660" y="210" as="targetPoint" />
          </mxGeometry>
        </mxCell>
        <mxCell id="o5fLMYKRSajH-GLKhDvp-133" value="" style="endArrow=classic;startArrow=classic;html=1;rounded=0;entryX=0;entryY=1;entryDx=0;entryDy=0;exitX=0.5;exitY=0;exitDx=0;exitDy=0;" edge="1" parent="1" source="o5fLMYKRSajH-GLKhDvp-13" target="o5fLMYKRSajH-GLKhDvp-4">
          <mxGeometry width="50" height="50" relative="1" as="geometry">
            <mxPoint x="610" y="260" as="sourcePoint" />
            <mxPoint x="660" y="210" as="targetPoint" />
          </mxGeometry>
        </mxCell>
        <mxCell id="o5fLMYKRSajH-GLKhDvp-134" value="" style="endArrow=classic;startArrow=classic;html=1;rounded=0;entryX=1;entryY=1;entryDx=0;entryDy=0;exitX=0.5;exitY=0;exitDx=0;exitDy=0;" edge="1" parent="1" source="o5fLMYKRSajH-GLKhDvp-7" target="o5fLMYKRSajH-GLKhDvp-4">
          <mxGeometry width="50" height="50" relative="1" as="geometry">
            <mxPoint x="610" y="260" as="sourcePoint" />
            <mxPoint x="660" y="210" as="targetPoint" />
          </mxGeometry>
        </mxCell>
        <mxCell id="o5fLMYKRSajH-GLKhDvp-135" value="" style="endArrow=classic;startArrow=classic;html=1;rounded=0;entryX=0.5;entryY=0;entryDx=0;entryDy=0;exitX=0.5;exitY=1;exitDx=0;exitDy=0;" edge="1" parent="1" source="o5fLMYKRSajH-GLKhDvp-4" target="o5fLMYKRSajH-GLKhDvp-10">
          <mxGeometry width="50" height="50" relative="1" as="geometry">
            <mxPoint x="610" y="260" as="sourcePoint" />
            <mxPoint x="660" y="210" as="targetPoint" />
          </mxGeometry>
        </mxCell>
      </root>
    </mxGraphModel>
  </diagram>
</mxfile>
